<svg width="9" height="16" viewBox="0 0 9 16" fill="none" xmlns="http://www.w3.org/2000/svg">
<path d="M8.08335 2.89355H5.58335C5.1231 2.89355 4.75002 3.26665 4.75002 3.72689V6.22689H8.08335C8.1781 6.22479 8.26802 6.26889 8.32435 6.34514C8.38069 6.42139 8.39652 6.52022 8.36669 6.61022L7.75002 8.44355C7.69319 8.6118 7.53594 8.72555 7.35835 8.72689H4.75002V14.9769C4.75002 15.207 4.56344 15.3936 4.33335 15.3936H2.25002C2.0199 15.3936 1.83335 15.207 1.83335 14.9769V8.72689H0.583354C0.353237 8.72689 0.166687 8.5403 0.166687 8.31022V6.64355C0.166687 6.41347 0.353237 6.22689 0.583354 6.22689H1.83335V3.72689C1.83335 1.88594 3.32577 0.393555 5.16669 0.393555H8.08335C8.31344 0.393555 8.50002 0.580105 8.50002 0.810221V2.47689C8.50002 2.707 8.31344 2.89355 8.08335 2.89355Z" fill="white"/>
</svg>
