<svg width="25" height="25" viewBox="0 0 25 25" fill="none" xmlns="http://www.w3.org/2000/svg">
<path fill-rule="evenodd" clip-rule="evenodd" d="M8.19204 5.34277H16.4748C18.3272 5.34277 19.8394 6.85841 19.8394 8.70742V17.0761C19.8394 18.9285 18.3272 20.4441 16.4748 20.4441H8.19204C6.34305 20.4441 4.82739 18.9285 4.82739 17.0761V8.70742C4.82739 6.85841 6.34303 5.34277 8.19204 5.34277Z" fill="white"/>
<path fill-rule="evenodd" clip-rule="evenodd" d="M15.0862 7.87231H9.58044C8.35005 7.87231 7.34308 8.87931 7.34308 10.1097V15.6739C7.34308 16.9043 8.35005 17.9112 9.58044 17.9112H15.0862C16.3166 17.9112 17.3236 16.9042 17.3236 15.6739V10.1097C17.3236 8.87929 16.3166 7.87231 15.0862 7.87231ZM16.3991 15.1584C16.3991 16.1585 15.5777 16.9799 14.5776 16.9799H10.0925C9.08897 16.9799 8.27101 16.1585 8.27101 15.1584V10.6286C8.27101 9.62508 9.08897 8.80713 10.0925 8.80713H14.5776C15.5777 8.80713 16.3991 9.62508 16.3991 10.6286V15.1584Z" fill="#004741"/>
<path d="M12.3333 10.4155C10.9689 10.4155 9.85883 11.5291 9.85883 12.8935C9.85883 14.2579 10.9689 15.368 12.3333 15.368C13.6977 15.368 14.8113 14.2579 14.8113 12.8935C14.8113 11.529 13.6977 10.4155 12.3333 10.4155ZM12.3333 14.5328C11.4295 14.5328 10.694 13.7974 10.694 12.8935C10.694 11.9896 11.4295 11.2541 12.3333 11.2541C13.2372 11.2541 13.9727 11.9896 13.9727 12.8935C13.9727 13.7974 13.2372 14.5328 12.3333 14.5328Z" fill="#004741"/>
<path fill-rule="evenodd" clip-rule="evenodd" d="M17.3197 7.85711C17.6015 7.85711 17.8284 7.63028 17.8284 7.35191C17.8284 7.0701 17.6015 6.84326 17.3197 6.84326C17.0413 6.84326 16.8145 7.0701 16.8145 7.35191C16.8145 7.63029 17.0414 7.85711 17.3197 7.85711Z" fill="#004741"/>
</svg>
