<svg width="21" height="21" viewBox="0 0 21 21" fill="none" xmlns="http://www.w3.org/2000/svg">
<path fill-rule="evenodd" clip-rule="evenodd" d="M4.50004 3.39355H16.1667C17.0872 3.39355 17.8334 4.13975 17.8334 5.06022V16.7269C17.8334 17.6474 17.0872 18.3936 16.1667 18.3936H4.50004C3.57957 18.3936 2.83337 17.6474 2.83337 16.7269V5.06022C2.83337 4.13975 3.57957 3.39355 4.50004 3.39355ZM7.00004 15.8936C7.23016 15.8936 7.41671 15.707 7.41671 15.4769V9.64355C7.41671 9.41347 7.23016 9.22689 7.00004 9.22689H5.75004C5.51992 9.22689 5.33337 9.41347 5.33337 9.64355V15.4769C5.33337 15.707 5.51992 15.8936 5.75004 15.8936H7.00004ZM6.37504 8.39355C5.68468 8.39355 5.12504 7.83391 5.12504 7.14355C5.12504 6.4532 5.68468 5.89355 6.37504 5.89355C7.0654 5.89355 7.62504 6.4532 7.62504 7.14355C7.62504 7.83391 7.0654 8.39355 6.37504 8.39355ZM14.9167 15.8936C15.1468 15.8936 15.3334 15.707 15.3334 15.4769V11.6436C15.3605 10.3192 14.3814 9.18899 13.0667 9.02689C12.1475 8.94293 11.257 9.37222 10.75 10.1436V9.64355C10.75 9.41347 10.5635 9.22689 10.3334 9.22689H9.08337C8.85329 9.22689 8.66671 9.41347 8.66671 9.64355V15.4769C8.66671 15.707 8.85329 15.8936 9.08337 15.8936H10.3334C10.5635 15.8936 10.75 15.707 10.75 15.4769V12.3519C10.75 11.6616 11.3097 11.1019 12 11.1019C12.6904 11.1019 13.25 11.6616 13.25 12.3519V15.4769C13.25 15.707 13.4366 15.8936 13.6667 15.8936H14.9167Z" fill="white"/>
</svg>
