<svg width="21" height="21" viewBox="0 0 21 21" fill="none" xmlns="http://www.w3.org/2000/svg">
<path d="M17.8107 6.49139C17.4237 7.00766 16.9559 7.458 16.4253 7.82502C16.4253 7.95988 16.4253 8.09474 16.4253 8.2371C16.4295 10.6861 15.4513 13.0345 13.7099 14.7556C11.9684 16.4768 9.60935 17.4268 7.16173 17.3926C5.74668 17.3974 4.34975 17.0743 3.08037 16.4486C3.01192 16.4187 2.96778 16.3511 2.96804 16.2763V16.1939C2.96804 16.0863 3.05521 15.9991 3.16275 15.9991C4.55371 15.9532 5.89504 15.471 6.99697 14.6206C5.73796 14.5951 4.60518 13.8493 4.08386 12.7025C4.05753 12.6399 4.06572 12.568 4.1055 12.5129C4.14526 12.4578 4.21086 12.4275 4.27856 12.4328C4.66121 12.4712 5.04767 12.4356 5.41686 12.3279C4.02701 12.0394 2.9827 10.8856 2.83324 9.47331C2.82793 9.40556 2.85829 9.33997 2.91336 9.30014C2.96841 9.26039 3.04022 9.25214 3.10284 9.27856C3.47581 9.44314 3.87843 9.52981 4.28606 9.53322C3.06822 8.73394 2.5422 7.2136 3.00548 5.83207C3.05331 5.69783 3.1682 5.59866 3.30794 5.57101C3.44767 5.54335 3.59166 5.59129 3.68696 5.69721C5.33035 7.44626 7.58839 8.48852 9.98494 8.60422C9.9236 8.35927 9.89344 8.10752 9.8951 7.85499C9.91752 6.53082 10.7369 5.35123 11.9695 4.86845C13.2021 4.38567 14.6041 4.69525 15.5192 5.65226C16.1429 5.53343 16.7459 5.32393 17.3089 5.0304C17.3502 5.00465 17.4025 5.00465 17.4438 5.0304C17.4695 5.07166 17.4695 5.12399 17.4438 5.16526C17.171 5.78982 16.7103 6.31366 16.1258 6.66371C16.6376 6.60436 17.1404 6.48361 17.6235 6.30409C17.6642 6.27641 17.7176 6.27641 17.7583 6.30409C17.7924 6.31967 17.8179 6.34948 17.8279 6.38557C17.838 6.42166 17.8317 6.46037 17.8107 6.49139Z" fill="white"/>
</svg>
